# xmcd CD database file
#
# Track frame offsets:
#	150
#	8172
#	26262
#	56402
#	72970
#	89657
#	96150
#	129987
#	146737
#	167687
#	190830
#	201275
#	206772
#
# Disc length: 3150 seconds
#
# Revision: 0
# Processed by: cddbd v1.5.2PL0 Copyright (c) Steve Scherf et al.
# Submitted via: CDex 1.70beta2
#
DISCID=b50c4c0d
DTITLE=Sharon Wiener - one bright pearl
DYEAR=1996
DGENRE=New Age
TTITLE0=ahaha
TTITLE1=i met a woman once
TTITLE2=remember the loveliness
TTITLE3=dakini wisdom
TTITLE4=dance, lalla
TTITLE5=where i sit is holy
TTITLE6=water of life
TTITLE7=there is a world inside of me
TTITLE8=returning
TTITLE9=you are the sky and the ground
TTITLE10=i went everywhere with longing
TTITLE11=the way i must enter
TTITLE12=one bright pearl
EXTD=YEAR: 1996
EXTT0=
EXTT1=
EXTT2=
EXTT3=
EXTT4=
EXTT5=
EXTT6=
EXTT7=
EXTT8=
EXTT9=
EXTT10=
EXTT11=
EXTT12=
PLAYORDER=
